<svg width="41" height="41" viewBox="0 0 41 41" fill="none" xmlns="http://www.w3.org/2000/svg">
<rect width="41" height="41" fill="#00D95F"/>
<path d="M10.25 29.9909L11.7208 24.522C10.5346 22.3916 10.1578 19.9056 10.6594 17.5201C11.161 15.1347 12.5075 13.0099 14.4517 11.5356C16.3959 10.0613 18.8074 9.33633 21.2438 9.49384C23.6801 9.65134 25.9779 10.6807 27.7154 12.393C29.4529 14.1054 30.5136 16.3858 30.7029 18.8159C30.8922 21.246 30.1973 23.6627 28.7458 25.6226C27.2943 27.5825 25.1836 28.9541 22.8009 29.4857C20.4182 30.0173 17.9234 29.6733 15.7743 28.5167L10.25 29.9909ZM16.0407 26.4702L16.3823 26.6725C17.939 27.5937 19.7571 27.9749 21.5534 27.7567C23.3497 27.5385 25.0233 26.7332 26.3133 25.4664C27.6033 24.1995 28.4373 22.5422 28.6853 20.7527C28.9334 18.9632 28.5815 17.142 27.6845 15.573C26.7876 14.004 25.396 12.7753 23.7265 12.0783C22.057 11.3814 20.2035 11.2553 18.4548 11.7199C16.7061 12.1844 15.1604 13.2134 14.0587 14.6464C12.9569 16.0795 12.3609 17.8362 12.3636 19.6428C12.3621 21.1407 12.7771 22.6096 13.5623 23.8861L13.7765 24.2387L12.9542 27.2911L16.0407 26.4702Z" fill="white"/>
<path fill-rule="evenodd" clip-rule="evenodd" d="M24.3329 21.0469C24.1326 20.8857 23.8981 20.7722 23.6472 20.7151C23.3964 20.658 23.1357 20.6588 22.8852 20.7174C22.5088 20.8735 22.2656 21.4632 22.0224 21.758C21.9711 21.8287 21.8958 21.8783 21.8105 21.8974C21.7252 21.9166 21.6358 21.904 21.5592 21.8621C20.1812 21.3233 19.0261 20.3352 18.2817 19.0583C18.2182 18.9786 18.1881 18.8774 18.1978 18.776C18.2075 18.6747 18.2563 18.581 18.3338 18.5148C18.605 18.2467 18.8042 17.9147 18.9128 17.5494C18.937 17.1465 18.8445 16.7451 18.6465 16.3932C18.4934 15.8998 18.202 15.4605 17.8068 15.1271C17.603 15.0356 17.377 15.0049 17.1561 15.0388C16.9352 15.0726 16.7288 15.1696 16.5618 15.3179C16.272 15.5676 16.0419 15.8789 15.8886 16.2291C15.7353 16.5793 15.6626 16.9593 15.6759 17.3413C15.6768 17.5558 15.704 17.7693 15.7569 17.9772C15.8914 18.4766 16.0982 18.9538 16.3707 19.3936C16.5674 19.7304 16.7819 20.0566 17.0135 20.3706C17.766 21.4019 18.712 22.2775 19.7988 22.9489C20.3442 23.2901 20.9271 23.5675 21.536 23.7756C22.1685 24.0619 22.8669 24.1717 23.5569 24.0936C23.9501 24.0342 24.3226 23.8792 24.6417 23.6423C24.9608 23.4054 25.2167 23.0938 25.3868 22.735C25.4868 22.5183 25.5171 22.2759 25.4737 22.0413C25.3694 21.5615 24.7267 21.2782 24.3329 21.0469Z" fill="white"/>
</svg>
